<svg 
 xmlns="http://www.w3.org/2000/svg"
 xmlns:xlink="http://www.w3.org/1999/xlink"
 width="889px" height="535px">
<defs>
<filter filterUnits="userSpaceOnUse" id="Filter_0" x="0.5px" y="0.5px" width="888px" height="534px"  >
    <feOffset in="SourceAlpha" dx="0" dy="0" />
    <feGaussianBlur result="blurOut" stdDeviation="5.916" />
    <feFlood flood-color="rgb(0, 0, 0)" result="floodOut" />
    <feComposite operator="atop" in="floodOut" in2="blurOut" />
    <feComponentTransfer><feFuncA type="linear" slope="0.7"/></feComponentTransfer>
    <feMerge>
    <feMergeNode/>
    <feMergeNode in="SourceGraphic"/>
  </feMerge>
</filter>

</defs>
<g filter="url(#Filter_0)">
<path fill-rule="evenodd"  stroke-width="1px" stroke="rgb(3, 255, 252)" fill-opacity="0.949" fill="rgb(0, 22, 46)"
 d="M34.496,34.499 L34.496,472.174 L67.495,499.173 L853.496,499.173 L853.496,61.499 L820.494,34.499 L34.496,34.499 Z"/>
</g>
<path fill-rule="evenodd"  fill="rgb(3, 255, 252)"
 d="M851.097,60.498 L825.410,38.408 L825.420,38.382 L820.974,34.675 L45.959,34.675 L39.439,41.557 L36.895,41.557 L36.895,57.616 L33.496,59.911 L33.496,33.527 L34.629,33.527 L34.629,32.910 L42.559,25.498 L99.587,25.498 L109.406,32.381 L730.332,32.381 L735.997,27.792 L820.974,27.792 L840.234,43.852 L840.234,48.370 L854.497,60.498 L851.097,60.498 ZM45.799,27.499 L41.496,32.499 L44.111,32.499 L48.414,27.499 L45.799,27.499 ZM52.336,27.499 L48.032,32.499 L50.647,32.499 L54.949,27.499 L52.336,27.499 ZM58.871,27.499 L54.567,32.499 L57.182,32.499 L61.485,27.499 L58.871,27.499 Z"/>
<path fill-rule="evenodd"  fill="rgb(3, 255, 252)"
 d="M853.366,499.470 L853.366,500.087 L845.433,507.499 L788.406,507.499 L778.587,500.616 L157.661,500.616 L151.997,505.205 L67.020,505.205 L47.759,489.146 L47.759,484.627 L33.498,472.499 L36.895,472.499 L62.583,494.590 L62.573,494.615 L67.020,498.322 L842.036,498.322 L848.554,491.440 L851.097,491.440 L851.097,475.381 L854.497,473.087 L854.497,499.470 L853.366,499.470 ZM784.495,500.499 L790.800,505.499 L793.413,505.499 L787.111,500.499 L784.495,500.499 ZM791.031,500.499 L797.337,505.499 L799.951,505.499 L793.646,500.499 L791.031,500.499 ZM800.181,500.499 L797.567,500.499 L803.873,505.499 L806.486,505.499 L800.181,500.499 Z"/>
<path fill-rule="evenodd"  opacity="0.251" fill="rgb(0, 255, 255)"
 d="M34.498,35.499 L853.499,35.499 L853.499,87.499 L34.498,87.499 L34.498,35.499 Z"/>
<path fill-rule="evenodd"  fill="rgb(0, 255, 255)"
 d="M34.498,87.499 L853.499,87.499 L853.499,89.500 L34.498,89.500 L34.498,87.499 Z"/>
</svg>