<svg 
 xmlns="http://www.w3.org/2000/svg"
 xmlns:xlink="http://www.w3.org/1999/xlink"
 width="200px" height="414px">
<path fill-rule="evenodd"  opacity="0.2" fill="rgb(0, 121, 191)"
 d="M83.340,346.459 C81.281,347.653 78.728,347.653 76.649,346.459 C74.583,345.258 73.324,343.052 73.339,340.662 L73.339,287.326 C73.324,284.938 74.583,282.737 76.649,281.537 C78.728,280.342 81.281,280.338 83.340,281.529 L129.995,308.196 C132.089,309.377 133.387,311.597 133.387,313.999 C133.387,316.400 132.089,318.607 129.995,319.788 L83.340,346.459 ZM86.675,298.863 L86.675,329.194 L113.339,313.999 L86.675,298.863 ZM173.337,413.999 L26.651,413.999 C11.932,413.999 -0.006,402.058 -0.006,387.334 L-0.006,240.661 C-0.006,225.940 11.932,213.998 26.651,213.998 L173.337,213.998 C188.067,213.998 200.004,225.940 200.004,240.661 L200.004,267.328 L13.348,267.328 L13.348,360.662 L200.004,360.662 L200.004,387.334 C200.004,402.058 188.067,413.999 173.337,413.999 ZM153.342,253.995 L186.668,253.995 L186.668,240.661 C186.668,233.295 180.694,227.330 173.337,227.330 L153.342,227.330 L153.342,253.995 ZM106.676,253.995 L140.002,253.995 L140.002,227.330 L106.676,227.330 L106.676,253.995 ZM59.996,253.995 L93.322,253.995 L93.322,227.330 L59.996,227.330 L59.996,253.995 ZM46.671,253.995 L46.671,227.330 L26.651,227.330 C19.297,227.330 13.348,233.295 13.348,240.661 L13.348,253.995 L46.671,253.995 ZM46.671,373.996 L13.348,373.996 L13.348,387.334 C13.348,394.695 19.297,400.665 26.651,400.665 L46.671,400.665 L46.671,373.996 ZM93.322,373.996 L59.996,373.996 L59.996,400.665 L93.322,400.665 L93.322,373.996 ZM140.002,373.996 L106.676,373.996 L106.676,400.665 L140.002,400.665 L140.002,373.996 ZM186.668,373.996 L153.342,373.996 L153.342,400.665 L173.337,400.665 C180.694,400.665 186.668,394.695 186.668,387.334 L186.668,373.996 ZM193.327,347.329 C189.652,347.329 186.668,344.348 186.668,340.662 C186.668,336.980 189.652,333.998 193.327,333.998 C197.017,333.998 200.004,336.980 200.004,340.662 C200.004,344.348 197.017,347.329 193.327,347.329 ZM193.327,320.664 C189.652,320.664 186.668,317.677 186.668,313.999 L186.668,287.326 C186.668,283.648 189.652,280.666 193.327,280.666 C197.017,280.666 200.004,283.648 200.004,287.326 L200.004,313.999 C200.004,317.677 197.017,320.664 193.327,320.664 Z"/>
<path fill-rule="evenodd"  fill="rgb(0, 121, 191)"
 d="M83.340,132.470 C81.281,133.662 78.728,133.658 76.649,132.463 C74.583,131.262 73.324,129.062 73.339,126.674 L73.339,73.338 C73.324,70.948 74.583,68.742 76.649,67.541 C78.728,66.346 81.281,66.346 83.340,67.541 L129.995,94.212 C132.089,95.392 133.387,97.600 133.387,100.001 C133.387,102.402 132.089,104.623 129.995,105.803 L83.340,132.470 ZM86.675,84.806 L86.675,115.137 L113.339,100.001 L86.675,84.806 ZM173.337,200.002 L26.651,200.002 C11.932,200.002 -0.006,188.060 -0.006,173.339 L-0.006,26.665 C-0.006,11.942 11.932,0.000 26.651,0.000 L173.337,0.000 C188.067,0.000 200.004,11.942 200.004,26.665 L200.004,53.338 L13.348,53.338 L13.348,146.672 L200.004,146.672 L200.004,173.339 C200.004,188.060 188.067,200.002 173.337,200.002 ZM153.342,40.004 L186.668,40.004 L186.668,26.665 C186.668,19.304 180.694,13.335 173.337,13.335 L153.342,13.335 L153.342,40.004 ZM106.676,40.004 L140.002,40.004 L140.002,13.335 L106.676,13.335 L106.676,40.004 ZM59.996,40.004 L93.322,40.004 L93.322,13.335 L59.996,13.335 L59.996,40.004 ZM46.671,40.004 L46.671,13.335 L26.651,13.335 C19.297,13.335 13.348,19.304 13.348,26.665 L13.348,40.004 L46.671,40.004 ZM46.671,160.004 L13.348,160.004 L13.348,173.339 C13.348,180.705 19.297,186.669 26.651,186.669 L46.671,186.669 L46.671,160.004 ZM93.322,160.004 L59.996,160.004 L59.996,186.669 L93.322,186.669 L93.322,160.004 ZM140.002,160.004 L106.676,160.004 L106.676,186.669 L140.002,186.669 L140.002,160.004 ZM186.668,160.004 L153.342,160.004 L153.342,186.669 L173.337,186.669 C180.694,186.669 186.668,180.705 186.668,173.339 L186.668,160.004 ZM193.327,80.001 C189.652,80.001 186.668,77.020 186.668,73.338 C186.668,69.652 189.652,66.671 193.327,66.671 C197.017,66.671 200.004,69.652 200.004,73.338 C200.004,77.020 197.017,80.001 193.327,80.001 ZM193.327,133.333 C189.652,133.333 186.668,130.352 186.668,126.674 L186.668,100.001 C186.668,96.322 189.652,93.336 193.327,93.336 C197.017,93.336 200.004,96.322 200.004,100.001 L200.004,126.674 C200.004,130.352 197.017,133.333 193.327,133.333 Z"/>
</svg>